Coordinates
version=1
nRows=26
nColumns=22
inDegrees=yes

Units are S.I. units (second, meters, Newtons, ...)
If the header above contains a line with 'inDegrees', this indicates whether rotational values are in degrees (yes) or radians (no).

endheader
time	pelvis_tilt	pelvis_list	pelvis_rotation	pelvis_tx	pelvis_ty	pelvis_tz	hip_flexion_r	hip_adduction_r	hip_rotation_r	knee_angle_r	ankle_angle_r	subtalar_angle_r	hip_flexion_l	hip_adduction_l	hip_rotation_l	knee_angle_l	ankle_angle_l	subtalar_angle_l	lumbar_extension	lumbar_bending	lumbar_rotation
      0.01000000	     -2.89893175	     -6.98230109	      6.61995676	      0.15076383	      0.97600013	      1.05150109	      5.88995021	      7.70266308	    -11.72884512	    -15.87970558	     10.84967501	      1.16869241	      4.51421843	     -7.61964191	      7.13859674	     -9.80337463	     10.75915366	     -2.74902478	      3.25807433	      6.35084082	     -7.13719738
      0.02000000	     -2.88502747	     -6.97521542	      6.62832019	      0.15070353	      0.97601798	      1.05153467	      5.89370823	      7.69386145	    -11.74698912	    -15.90582749	     10.86889770	      1.18359032	      4.51127959	     -7.61488811	      7.14661614	     -9.81560172	     10.73406811	     -2.75395836	      3.23173461	      6.35066506	     -7.14799001
      0.03000000	     -2.88549081	     -6.97203531	      6.62881113	      0.15066549	      0.97602044	      1.05159355	      5.89700799	      7.69279388	    -11.74895199	    -15.90434198	     10.86984171	      1.18519459	      4.51374384	     -7.61530385	      7.14723096	     -9.81345985	     10.73399829	     -2.75438340	      3.22451761	      6.35297084	     -7.14832083
      0.04000000	     -2.87451386	     -6.96992633	      6.63511878	      0.15059176	      0.97603376	      1.05165601	      5.90632963	      7.69085239	    -11.76265836	    -15.93230380	     10.87368453	      1.20234952	      4.51468582	     -7.61695304	      7.15937964	     -9.82519332	     10.72377532	     -2.75569883	      3.19840589	      6.35955037	     -7.15251094
      0.05000000	     -2.87631538	     -6.96609538	      6.63552992	      0.15054997	      0.97603555	      1.05173613	      5.91018195	      7.69019518	    -11.76487067	    -15.92979226	     10.87439650	      1.20412785	      4.51823560	     -7.61799972	      7.15953049	     -9.82229223	     10.72345363	     -2.75572652	      3.18946484	      6.36261255	     -7.15306906
      0.06000000	     -2.87820475	     -6.96213185	      6.63641595	      0.15050107	      0.97603803	      1.05182511	      5.91522374	      7.69033558	    -11.76702338	    -15.92848583	     10.87477874	      1.20615253	      4.52242530	     -7.61899881	      7.15995518	     -9.81928828	     10.72210397	     -2.75545956	      3.17778933	      6.36648196	     -7.15367673
      0.07000000	     -2.87229503	     -6.96270547	      6.64217874	      0.15042453	      0.97604803	      1.05191835	      5.92767144	      7.69330749	    -11.77765207	    -15.95220211	     10.87387048	      1.22390103	      4.52539887	     -7.62546764	      7.16917274	     -9.82341976	     10.70276316	     -2.75123650	      3.15251357	      6.37738972	     -7.15899309
      0.08000000	     -2.87684049	     -6.95775917	      6.64177926	      0.15037929	      0.97604835	      1.05202233	      5.93244204	      7.69313291	    -11.77975740	    -15.94680414	     10.87487711	      1.22554673	      4.53027107	     -7.62646573	      7.16907735	     -9.81793994	     10.70260582	     -2.75097026	      3.14069266	      6.38150355	     -7.15954079
      0.09000000	     -2.88195368	     -6.95278748	      6.64175446	      0.15033356	      0.97604831	      1.05213333	      5.93800724	      7.69393535	    -11.78118625	    -15.94155588	     10.87621076	      1.22715991	      4.53529114	     -7.62741167	      7.16901064	     -9.81150813	     10.70177877	     -2.75058086	      3.12755121	      6.38602634	     -7.16019199
      0.10000000	     -2.88775753	     -6.94782986	      6.64125033	      0.15028908	      0.97604715	      1.05225155	      5.94404180	      7.69504220	    -11.78193398	    -15.93614272	     10.87812605	      1.22871619	      4.54042380	     -7.62895897	      7.16906511	     -9.80415998	     10.70038303	     -2.75009470	      3.11353128	      6.39089351	     -7.16117817
      0.11000000	     -2.89426114	     -6.94287038	      6.63983568	      0.15024683	      0.97604496	      1.05237770	      5.95059250	      7.69686767	    -11.78200779	    -15.93049682	     10.88071621	      1.23021472	      4.54553536	     -7.63081114	      7.16918009	     -9.79595627	     10.69845130	     -2.74951170	      3.09888556	      6.39602619	     -7.16264220
      0.12000000	     -2.90138251	     -6.93794938	      6.63718442	      0.15020716	      0.97604149	      1.05251254	      5.95763462	      7.69930671	    -11.78135823	    -15.92483144	     10.88395266	      1.23162817	      4.55058670	     -7.63325662	      7.16927941	     -9.78708068	     10.69596060	     -2.74882619	      3.08385610	      6.40129632	     -7.16464658
      0.13000000	     -2.91525006	     -6.94529674	      6.62242498	      0.15018167	      0.97603068	      1.05267736	      5.97683937	      7.71716656	    -11.75412732	    -15.92952592	     10.90976455	      1.24389423	      4.54700589	     -7.65190317	      7.17140082	     -9.75236035	     10.66486992	     -2.74158614	      3.07907460	      6.42124745	     -7.17626575
      0.14000000	     -2.92257603	     -6.93912345	      6.61920104	      0.15014407	      0.97602579	      1.05282784	      5.98355197	      7.71946652	    -11.75498224	    -15.92280534	     10.91102891	      1.24505820	      4.55352534	     -7.65365124	      7.17073410	     -9.74601654	     10.66455555	     -2.74134664	      3.06264011	      6.42453687	     -7.17563633
      0.15000000	     -2.93029181	     -6.93335653	      6.61290497	      0.15010636	      0.97602039	      1.05299196	      5.99182806	      7.72266713	    -11.75503373	    -15.91739641	     10.91315734	      1.24616632	      4.55975013	     -7.65687895	      7.16987805	     -9.74000431	     10.66317403	     -2.74089580	      3.04538878	      6.42818290	     -7.17571615
      0.16000000	     -2.94243829	     -6.94169476	      6.58237123	      0.15004638	      0.97600762	      1.05320203	      6.02390382	      7.74154553	    -11.72615731	    -15.94414068	     10.93115076	      1.25475104	      4.56890387	     -7.67787223	      7.15398953	     -9.73284971	     10.63967695	     -2.73503268	      3.02952478	      6.45063859	     -7.16300148
      0.17000000	     -2.95090157	     -6.93475046	      6.57798733	      0.15000716	      0.97600384	      1.05338430	      6.03274678	      7.74525594	    -11.72747402	    -15.93690111	     10.93260753	      1.25556592	      4.57694857	     -7.68056902	      7.15172031	     -9.72677126	     10.64030597	     -2.73487050	      3.01103422	      6.45199673	     -7.16191647
      0.18000000	     -2.95925404	     -6.92822197	      6.56966580	      0.14996999	      0.97599893	      1.05358453	      6.04257527	      7.74970346	    -11.72850268	    -15.93188778	     10.93480276	      1.25632466	      4.58501552	     -7.68507477	      7.14976433	     -9.72249383	     10.63975312	     -2.73445169	      2.99200145	      6.45346816	     -7.16131212
      0.19000000	     -3.00910913	     -6.94042153	      6.50844045	      0.14989700	      0.97593504	      1.05387412	      6.12348198	      7.77260517	    -11.66955341	    -15.97311378	     10.96323596	      1.27908267	      4.64863054	     -7.71002064	      7.06763330	     -9.74707630	     10.63765109	     -2.71853934	      3.01284522	      6.47468149	     -7.09694082
      0.20000000	     -3.01709004	     -6.93220087	      6.50141686	      0.14987161	      0.97592983	      1.05408777	      6.13175263	      7.77640415	    -11.67118621	    -15.96761624	     10.96385948	      1.27973184	      4.65612627	     -7.71300579	      7.06865835	     -9.74367978	     10.63751618	     -2.71793421	      2.99355235	      6.47501995	     -7.09943224
      0.21000000	     -3.03061384	     -6.92783083	      6.48470600	      0.14981702	      0.97591502	      1.05432811	      6.16128570	      7.78347991	    -11.65315030	    -15.98827998	     10.96784356	      1.28518193	      4.68219532	     -7.72015731	      7.06367662	     -9.76349868	     10.62502391	     -2.70776267	      2.97493558	      6.48035247	     -7.10515223
      0.22000000	     -3.04075987	     -6.91949408	      6.47798091	      0.14981806	      0.97590327	      1.05456931	      6.16819829	      7.78862776	    -11.65637766	    -15.98096459	     10.96912817	      1.28572953	      4.69027470	     -7.72514642	      7.06247189	     -9.75911149	     10.62572859	     -2.70704527	      2.95950890	      6.47731847	     -7.10650268
      0.23000000	     -3.11932777	     -6.91911403	      6.44537195	      0.14977703	      0.97580612	      1.05485544	      6.26092830	      7.79637202	    -11.62265960	    -15.99356139	     10.97262046	      1.29513972	      4.79498156	     -7.73103554	      7.01964797	     -9.79848550	     10.62828028	     -2.66050379	      3.01740239	      6.47699275	     -7.09595634
      0.24000000	     -3.12963270	     -6.91021558	      6.43779507	      0.14980466	      0.97579241	      1.05511400	      6.26561719	      7.80179326	    -11.62693968	    -15.98653311	     10.97377926	      1.29521662	      4.80096265	     -7.73672430	      7.01962755	     -9.79421891	     10.62888583	     -2.65989323	      3.00282962	      6.47263212	     -7.09972115
      0.25000000	     -3.15987684	     -6.90073737	      6.42868097	      0.14986911	      0.97575917	      1.05538114	      6.27918108	      7.80686624	    -11.63065001	    -15.96137182	     10.98031450	      1.29120764	      4.82374572	     -7.74098204	      7.00134723	     -9.78518891	     10.62433307	     -2.64914015	      3.01621620	      6.46527510	     -7.12298951
      0.26000000	     -3.22608999	     -6.89743981	      6.41001561	      0.14987020	      0.97567500	      1.05567900	      6.35171876	      7.81471543	    -11.61422842	    -15.96569409	     10.97697521	      1.26709763	      4.90583769	     -7.74658863	      6.99364353	     -9.80981211	     10.61870689	     -2.60272888	      3.06113930	      6.45910569	     -7.12861203
